<svg xmlns="http://www.w3.org/2000/svg" width="14" height="13.629" viewBox="0 0 14 13.629"><defs><style>.a{fill:#ccc;}</style></defs><title>social-github-navbar</title><path class="a" d="M8.189,0.185a6.908,6.908,0,0,0-6.95,6.95A7.076,7.076,0,0,0,6,13.788a0.352,0.352,0,0,0,.5-0.3V12.3c-1.986.4-2.383-.894-2.383-0.894a1.659,1.659,0,0,0-.794-0.993c-0.6-.4,0-0.4,0-0.4a1.412,1.412,0,0,1,1.092.7,1.4,1.4,0,0,0,1.986.6,1.24,1.24,0,0,1,.4-0.894c-1.589-.2-3.177-0.794-3.177-3.475a3.7,3.7,0,0,1,.894-2.085,2.225,2.225,0,0,1,.1-1.787s0.6-.2,1.887.7a4.645,4.645,0,0,1,1.688-.2,10.941,10.941,0,0,1,1.787.2c1.291-.894,1.887-0.7,1.887-0.7a3.084,3.084,0,0,1,.1,1.887,2.914,2.914,0,0,1,.7,1.887c0,2.681-1.589,3.277-3.177,3.475a1.437,1.437,0,0,1,.5,1.291V13.49c0,0.2.1,0.4,0.5,0.3A6.982,6.982,0,0,0,8.189.185Z" transform="translate(-1.239 -0.185)"/></svg>