<svg xmlns="http://www.w3.org/2000/svg" width="80" height="80" viewBox="0 0 80 80"><defs><style>.a{fill:#28282a;fill-rule:evenodd;}</style></defs><path class="a" d="M40,11.47A28.288,28.288,0,0,0,31.059,66.6a1.422,1.422,0,0,0,1.931-1.363c0-.671-0.024-2.45-0.038-4.811-7.868,1.709-9.528-3.792-9.528-3.792-1.286-3.268-3.14-4.138-3.14-4.138-2.568-1.755.194-1.719,0.194-1.719a5.941,5.941,0,0,1,4.333,2.915c2.523,4.322,6.62,3.074,8.232,2.35a6.044,6.044,0,0,1,1.8-3.781c-6.281-.714-12.884-3.14-12.884-13.979a10.933,10.933,0,0,1,2.911-7.59,10.174,10.174,0,0,1,.277-7.486s2.375-.761,7.778,2.9a26.81,26.81,0,0,1,14.162,0c5.4-3.66,7.771-2.9,7.771-2.9a10.159,10.159,0,0,1,.281,7.486,10.915,10.915,0,0,1,2.907,7.59c0,10.866-6.613,13.257-12.915,13.957,1.016,0.873,1.92,2.6,1.92,5.238,0,3.781-.035,6.832-0.035,7.759a1.417,1.417,0,0,0,1.945,1.36A28.29,28.29,0,0,0,40,11.47Z"/></svg>