<svg xmlns="http://www.w3.org/2000/svg" width="16.478" height="14" viewBox="0 0 16.478 14"><defs><style>.a{fill:#ccc;}</style></defs><title>twitter-icon</title><path class="a" d="M9.465,6.868A9.962,9.962,0,0,1,2.3,3.164a4,4,0,0,0,1.08,4.782l-1.57-.383a3.869,3.869,0,0,0,2.769,3.4l-1.432.228a3.682,3.682,0,0,0,3.22,2.255,7.565,7.565,0,0,1-4.893,1.58,8.441,8.441,0,0,0,.794.5A9.866,9.866,0,0,0,16.4,7.977c0.211-1.2.256-2.372,1.372-3.137a1.036,1.036,0,0,0,.178-0.369l-1.325.2L17.712,3.12l-0.134-.193a2.661,2.661,0,0,1-3.241-.067A3.289,3.289,0,0,0,9.77,4.909,13.739,13.739,0,0,0,9.465,6.868Z" transform="translate(-1.469 -2.5)"/></svg>