<svg xmlns="http://www.w3.org/2000/svg" width="80" height="80" viewBox="0 0 80 80"><defs><style>.a{fill:#28282a;}</style></defs><path class="a" d="M30.023,67.96c23.733,0,36.711-20.256,36.711-37.821q0-.863-0.036-1.718a26.692,26.692,0,0,0,6.436-6.883,25.142,25.142,0,0,1-7.41,2.093A13.277,13.277,0,0,0,71.4,16.279,25.421,25.421,0,0,1,63.2,19.505a12.715,12.715,0,0,0-9.418-4.2A13.1,13.1,0,0,0,40.883,28.6a13.651,13.651,0,0,0,.335,3.031,36.29,36.29,0,0,1-26.6-13.888,13.565,13.565,0,0,0-1.747,6.681,13.392,13.392,0,0,0,5.742,11.065,12.523,12.523,0,0,1-5.844-1.663c0,0.056,0,.11,0,0.17A13.2,13.2,0,0,0,23.122,47.023a12.514,12.514,0,0,1-5.827.228,12.971,12.971,0,0,0,12.053,9.233,25.473,25.473,0,0,1-19.1,5.506A35.751,35.751,0,0,0,30.024,67.96"/></svg>