<svg xmlns="http://www.w3.org/2000/svg" width="200" height="48" viewBox="0 0 200 48"><defs><style>.a,.b,.d,.e{fill:#ccc;}.a,.c,.d,.e{stroke:#ccc;stroke-miterlimit:10;}.a{stroke-width:0.2px;}.c{fill:none;}.d{stroke-width:0.5px;}.e{stroke-width:0.3px;}</style></defs><title>logo</title><path class="a" d="M54.988,24.464v5.6h-0.9V17.213H57.15a5.769,5.769,0,0,1,3.533.883,3.153,3.153,0,0,1,1.143,2.659,3.48,3.48,0,0,1-.681,2.18,3.792,3.792,0,0,1-2.07,1.274l3.489,5.854H61.492l-3.313-5.6h-3.19Zm0-.773H57.44a3.907,3.907,0,0,0,2.522-.726,2.588,2.588,0,0,0,.9-2.14,2.511,2.511,0,0,0-.879-2.136,4.8,4.8,0,0,0-2.865-.668H54.988v5.669Z"/><path class="a" d="M68.787,30.239a4.16,4.16,0,0,1-3.247-1.283,5.153,5.153,0,0,1-1.165-3.595A5.607,5.607,0,0,1,65.5,21.7a3.716,3.716,0,0,1,3.032-1.375A3.274,3.274,0,0,1,71.195,21.5a4.863,4.863,0,0,1,.976,3.2v0.7H65.289a4.514,4.514,0,0,0,.919,3.006,3.23,3.23,0,0,0,2.579,1.037,8.007,8.007,0,0,0,1.438-.114,8.73,8.73,0,0,0,1.568-.492v0.791a7,7,0,0,1-1.494.479A8.383,8.383,0,0,1,68.787,30.239ZM68.532,21.1a2.859,2.859,0,0,0-2.215.91,4.286,4.286,0,0,0-.976,2.623h5.906a4.169,4.169,0,0,0-.721-2.6A2.379,2.379,0,0,0,68.532,21.1Z"/><path class="a" d="M77.258,30.063l-3.691-9.554h0.9l2.47,6.5a20.005,20.005,0,0,1,.738,2.18h0.053q0.36-1.2.738-2.2l2.47-6.478h0.9l-3.691,9.554H77.258Z"/><path class="a" d="M83.666,17.855q0-.844.554-0.844a0.494,0.494,0,0,1,.427.22,1.087,1.087,0,0,1,.153.624,1.113,1.113,0,0,1-.153.624,0.488,0.488,0,0,1-.427.229Q83.666,18.708,83.666,17.855Zm0.993,12.208h-0.87V20.509h0.87v9.554Z"/><path class="a" d="M90.741,29.465a6.527,6.527,0,0,0,1.441-.141v0.7a4.612,4.612,0,0,1-1.459.211,2.373,2.373,0,0,1-1.867-.677,3.136,3.136,0,0,1-.6-2.127v-6.17H86.838v-0.51l1.415-.4L88.693,18.2h0.448v2.312h2.8v0.756h-2.8v6.047a2.76,2.76,0,0,0,.387,1.626A1.4,1.4,0,0,0,90.741,29.465Z"/><path class="a" d="M106.05,25.528H100.83l-1.793,4.535H98.043l5.168-12.9h0.571l5.063,12.9h-1.011Zm-4.9-.809h4.6L104,20.087q-0.22-.545-0.527-1.512a14.094,14.094,0,0,1-.519,1.529Z"/><path class="a" d="M118.758,20.9a3.416,3.416,0,0,1-1.266,2.856,5.69,5.69,0,0,1-3.586.993H111.92v5.309h-0.9V17.213h3.146Q118.758,17.213,118.758,20.9Zm-6.838,3.076h1.767a5.345,5.345,0,0,0,3.138-.717,2.7,2.7,0,0,0,.967-2.324,2.623,2.623,0,0,0-.914-2.2,4.569,4.569,0,0,0-2.83-.717H111.92v5.959Z"/><path class="a" d="M121.914,30.063V17.213h0.9v12.85h-0.9Z"/><path class="a" d="M141.6,23.515a6.541,6.541,0,0,1-1.7,4.892,6.854,6.854,0,0,1-4.983,1.656h-3.076V17.213h3.472A6.333,6.333,0,0,1,140,18.822,6.373,6.373,0,0,1,141.6,23.515Zm-0.976.035a5.622,5.622,0,0,0-1.4-4.153A5.61,5.61,0,0,0,135.1,18h-2.364V29.272h2.127Q140.625,29.272,140.625,23.55Z"/><path class="a" d="M152.6,25.273a5.409,5.409,0,0,1-1.134,3.651,3.912,3.912,0,0,1-3.129,1.314,4.052,4.052,0,0,1-2.215-.606,3.879,3.879,0,0,1-1.468-1.74,6.33,6.33,0,0,1-.51-2.619,5.38,5.38,0,0,1,1.134-3.644,3.909,3.909,0,0,1,3.111-1.3,3.836,3.836,0,0,1,3.09,1.322A5.435,5.435,0,0,1,152.6,25.273Zm-7.541,0a4.852,4.852,0,0,0,.866,3.071,3.266,3.266,0,0,0,4.9,0,4.864,4.864,0,0,0,.865-3.071,4.791,4.791,0,0,0-.874-3.067,2.973,2.973,0,0,0-2.457-1.09,2.926,2.926,0,0,0-2.438,1.086A4.851,4.851,0,0,0,145.054,25.273Z"/><path class="a" d="M159.416,30.239a4.091,4.091,0,0,1-3.208-1.292,5.2,5.2,0,0,1-1.16-3.6,5.294,5.294,0,0,1,1.2-3.7,4.237,4.237,0,0,1,3.3-1.322,6.627,6.627,0,0,1,2.373.431l-0.237.773a6.965,6.965,0,0,0-2.153-.413,3.27,3.27,0,0,0-2.663,1.086,4.757,4.757,0,0,0-.905,3.124,4.618,4.618,0,0,0,.905,3.028,3.106,3.106,0,0,0,2.531,1.094,6.213,6.213,0,0,0,2.417-.466v0.809A5.478,5.478,0,0,1,159.416,30.239Z"/><path class="a" d="M170.436,27.576a2.272,2.272,0,0,1-.976,1.974,4.749,4.749,0,0,1-2.769.689,6.6,6.6,0,0,1-3.041-.589v-0.94a6.712,6.712,0,0,0,3.041.721,4.006,4.006,0,0,0,2.149-.471,1.429,1.429,0,0,0,.733-1.252,1.529,1.529,0,0,0-.584-1.213,6.444,6.444,0,0,0-1.921-.967,10.926,10.926,0,0,1-2.013-.893,2.748,2.748,0,0,1-.874-0.844,2.107,2.107,0,0,1-.295-1.146,1.958,1.958,0,0,1,.9-1.7,4.373,4.373,0,0,1,2.518-.624,7.539,7.539,0,0,1,2.936.58l-0.325.791a6.884,6.884,0,0,0-2.61-.58,3.78,3.78,0,0,0-1.854.387,1.187,1.187,0,0,0-.686,1.072,1.482,1.482,0,0,0,.532,1.2,7.394,7.394,0,0,0,2.078,1,10.222,10.222,0,0,1,1.881.84,2.745,2.745,0,0,1,.884.848A2.082,2.082,0,0,1,170.436,27.576Z"/><path class="b" d="M24.76,33.764H24.723a2.5,2.5,0,0,1-2.5-2.5v-17.8a2.5,2.5,0,0,1,2.5-2.5H38.731a2.5,2.5,0,0,1,2.5,2.5v0.05h-1v-0.05a1.5,1.5,0,0,0-1.5-1.5H24.723a1.5,1.5,0,0,0-1.5,1.5v17.8a1.5,1.5,0,0,0,1.5,1.5H24.76v1Z"/><path class="b" d="M41.269,36.313H27.26a2.5,2.5,0,0,1-2.5-2.5v-17.8a2.5,2.5,0,0,1,2.5-2.5H41.269a2.5,2.5,0,0,1,2.5,2.5v17.8A2.5,2.5,0,0,1,41.269,36.313ZM27.26,14.513a1.5,1.5,0,0,0-1.5,1.5v17.8a1.5,1.5,0,0,0,1.5,1.5H41.269a1.5,1.5,0,0,0,1.5-1.5v-17.8a1.5,1.5,0,0,0-1.5-1.5H27.26Z"/><polyline class="c" points="30.534 19.647 40.446 30.299 39.514 31.899 29.515 26.92"/><polyline class="c" points="32.294 28.304 31.465 32.114 28.868 31.541 30.534 19.647 34.308 17.712 37.818 22.083 37.426 24.46 35.616 25.109"/><line class="d" x1="31.031" y1="19.599" x2="37.717" y2="22.104"/><line class="e" x1="33.839" y1="20.651" x2="33.512" y2="22.699"/></svg>