<svg xmlns="http://www.w3.org/2000/svg" width="20.767" height="20" viewBox="0 0 20.767 20"><defs><style>.a{fill:#333;}.b{fill:none;stroke-width:0.8px;}.b,.c,.d{stroke:#333;stroke-miterlimit:10;}.c,.d{fill:#ccc;}.c{stroke-width:0.5px;}.d{stroke-width:0.3px;}</style></defs><title>title-logo</title><path class="a" d="M2.118,17.837H2.089A1.945,1.945,0,0,1,.145,15.893V2.055A1.945,1.945,0,0,1,2.089.112h10.89a1.945,1.945,0,0,1,1.943,1.943V2.094H14.145V2.055A1.167,1.167,0,0,0,12.979.889H2.089A1.167,1.167,0,0,0,.923,2.055V15.893A1.167,1.167,0,0,0,2.089,17.06H2.118v0.777Z"/><path class="a" d="M14.952,19.819H4.061a1.945,1.945,0,0,1-1.943-1.943V4.037A1.945,1.945,0,0,1,4.061,2.094h10.89A1.945,1.945,0,0,1,16.9,4.037V17.876A1.945,1.945,0,0,1,14.952,19.819ZM4.061,2.871A1.167,1.167,0,0,0,2.9,4.037V17.876a1.167,1.167,0,0,0,1.166,1.166h10.89a1.167,1.167,0,0,0,1.166-1.166V4.037a1.167,1.167,0,0,0-1.166-1.166H4.061Z"/><polyline class="b" points="6.607 6.863 14.312 15.143 13.588 16.387 5.815 12.517"/><polyline class="b" points="7.975 13.592 7.331 16.555 5.312 16.109 6.607 6.863 9.54 5.359 12.27 8.756 11.964 10.604 10.557 11.109"/><line class="c" x1="6.993" y1="6.825" x2="12.191" y2="8.772"/><line class="d" x1="9.176" y1="7.643" x2="8.922" y2="9.236"/></svg>